<svg width="50" height="50" viewBox="0 0 50 50" fill="none" xmlns="http://www.w3.org/2000/svg">
<path d="M13.4056 4.00391C13.5433 9.81699 15.0053 15.6284 16.8358 20.3877C18.7586 25.3868 21.1411 29.2732 22.4964 30.6286L22.754 30.886V33.4961H27.2461V30.886L27.5037 30.6286C28.859 29.2731 31.2415 25.3868 33.1643 20.3877C34.9948 15.6284 36.4568 9.81699 36.5945 4.00391H13.4056ZM8.46372 10.6733C6.70884 11.2642 5.30982 12.4521 4.78941 13.6389C4.49497 14.3103 4.44956 14.9514 4.69292 15.6046C4.72075 15.6794 4.75347 15.755 4.79019 15.831C5.06046 15.663 5.33752 15.5062 5.62066 15.361L6.23365 15.0471L6.68491 15.5672C7.18658 16.1453 7.62339 16.7752 7.99566 17.4349C8.24693 17.136 8.50415 16.6669 8.68413 16.0641C9.12271 14.5959 9.1062 12.4557 8.46372 10.6733ZM41.5364 10.6733C40.8938 12.4556 40.8774 14.5959 41.3159 16.0641C41.4959 16.6669 41.7532 17.136 42.0044 17.4349C42.3768 16.7751 42.8135 16.1453 43.3152 15.5672L43.7665 15.0471L44.3794 15.361C44.6626 15.5062 44.9396 15.663 45.2099 15.831C45.2465 15.7549 45.2793 15.6794 45.3072 15.6046C45.5505 14.9514 45.5051 14.3103 45.2107 13.6389C44.6903 12.4521 43.2913 11.2642 41.5364 10.6733ZM5.79663 17.2886C3.819 18.5079 2.4645 20.3623 2.20816 21.9734C2.06685 22.8621 2.21695 23.6555 2.72798 24.3704C2.89009 24.5974 3.09351 24.819 3.34361 25.0306C3.67593 24.5137 4.04954 24.0246 4.46079 23.568L4.92173 23.0562L5.52886 23.3814C6.30132 23.7951 7.01929 24.3018 7.67144 24.8709C7.76646 24.5161 7.82954 24.1002 7.84458 23.6389C7.90669 21.7406 7.18423 19.192 5.79673 17.2886H5.79663ZM44.2035 17.2886C42.8158 19.1919 42.0934 21.7407 42.1555 23.6389C42.1706 24.1002 42.2336 24.5161 42.3287 24.8709C42.9808 24.3018 43.6988 23.7951 44.4712 23.3814L45.0784 23.0562L45.5393 23.568C45.9506 24.0245 46.3242 24.5136 46.6565 25.0305C46.9065 24.819 47.1099 24.5974 47.2721 24.3703C47.7832 23.6555 47.9333 22.8621 47.7919 21.9734C47.5356 20.3623 46.1811 18.5079 44.2035 17.2886ZM5.31255 25.306C3.90689 27.1425 3.31099 29.3502 3.652 30.9454C3.84029 31.8257 4.26704 32.5155 5.00396 33.0038C5.48677 33.3237 6.12505 33.5604 6.95122 33.6527C7.13566 33.0541 7.36755 32.4711 7.64468 31.9094L7.94986 31.2904L8.62368 31.4403C9.02359 31.5293 9.41792 31.6401 9.80474 31.7701C9.76831 31.3953 9.67691 30.9708 9.51909 30.5182C8.89253 28.7217 7.29751 26.5939 5.31255 25.306ZM44.6876 25.306C42.7026 26.5939 41.1075 28.7217 40.481 30.5182C40.3232 30.9708 40.2318 31.3953 40.1954 31.7701C40.583 31.6395 40.9772 31.5295 41.3763 31.4403L42.0501 31.2904L42.3554 31.9094C42.6326 32.4711 42.8644 33.0541 43.0489 33.6527C43.8751 33.5605 44.5133 33.3236 44.9961 33.0038C45.7331 32.5155 46.1598 31.8256 46.3481 30.9454C46.6891 29.3502 46.0932 27.1425 44.6876 25.306ZM8.9356 33.3522C8.02886 35.612 8.05406 38.0251 8.86636 39.5573C9.31265 40.399 9.95093 40.9838 10.8457 41.2724C11.2935 41.4168 11.818 41.4862 12.4262 41.4484C12.2177 40.3591 12.1556 39.2053 12.2547 38.0365L12.3135 37.3457L12.9991 37.2417C13.4346 37.1761 13.8733 37.1334 14.3133 37.1136C14.3674 37.1111 14.4214 37.1097 14.4754 37.1078C13.2626 35.5672 11.1666 34.0385 8.9356 33.3522ZM41.0645 33.3522C38.8335 34.0385 36.7374 35.5671 35.5246 37.1078C35.5787 37.1097 35.6327 37.1111 35.6867 37.1136C36.1261 37.1337 36.5651 37.1758 37.0011 37.2417L37.6867 37.3457L37.7453 38.0365C37.8445 39.2052 37.7824 40.3591 37.5739 41.4484C38.1821 41.4861 38.7067 41.4168 39.1544 41.2724C40.0492 40.9838 40.6876 40.399 41.1337 39.5572C41.946 38.025 41.9712 35.6119 41.0645 33.3522ZM19.5048 35.2539C19.3151 35.9749 18.9145 36.6253 18.3949 37.1448C18.2867 37.2522 18.1731 37.354 18.0546 37.45C19.5003 37.7718 20.8534 38.2988 22.0003 38.9598C22.2332 38.4363 22.5253 37.9495 22.9191 37.5404C23.4336 37.0061 24.171 36.6211 25.0001 36.6211C25.8293 36.6211 26.5666 37.0061 27.081 37.5404C27.4748 37.9496 27.7669 38.4364 27.9998 38.9597C29.1536 38.2948 30.516 37.7653 31.9714 37.444C31.844 37.3394 31.7221 37.2282 31.6063 37.1107C31.0959 36.5899 30.701 35.9533 30.5066 35.2539H19.5048ZM25.0001 38.3789C24.6647 38.3789 24.4498 38.4848 24.1856 38.7593C23.9215 39.0337 23.6587 39.4937 23.4505 40.0579C23.034 41.1864 22.8311 42.6946 22.7517 43.8124C22.6472 45.2814 23.0447 47.071 23.9514 47.7245C24.4136 48.0577 25.5865 48.0577 26.0487 47.7245C26.9554 47.071 27.3529 45.2814 27.2484 43.8124C27.169 42.6946 26.9661 41.1864 26.5496 40.0579C26.3414 39.4937 26.0786 39.0337 25.8145 38.7593C25.5503 38.4849 25.3354 38.3789 25.0001 38.3789ZM14.8906 38.8651C14.7232 38.8644 14.5562 38.8673 14.3899 38.8739C14.2527 38.8793 14.1194 38.9014 13.9833 38.912C13.9424 41.6285 14.9418 44.1408 16.4241 45.4202C17.2311 46.1169 18.1415 46.4722 19.1926 46.4121C19.7696 46.3791 20.403 46.2139 21.0846 45.873C20.9606 45.1245 20.9501 44.3672 20.9984 43.6876C21.0601 42.8194 21.1793 41.7382 21.4358 40.6723C19.76 39.6287 17.2926 38.8759 14.8906 38.865V38.8651ZM35.1095 38.8651C32.7075 38.8759 30.2401 39.6288 28.5643 40.6723C28.8208 41.7382 28.94 42.8194 29.0017 43.6876C29.05 44.3671 29.0395 45.1245 28.9155 45.8731C29.5971 46.214 30.2305 46.3791 30.8076 46.4121C31.8586 46.4722 32.769 46.1169 33.5761 45.4203C35.0583 44.1408 36.0577 41.6285 36.0168 38.912C35.8808 38.9014 35.7473 38.8793 35.6102 38.8739C35.4434 38.8673 35.2765 38.8644 35.1095 38.8651Z" fill="#093238"/>
</svg>
