<svg width="50" height="50" viewBox="0 0 50 50" fill="none" xmlns="http://www.w3.org/2000/svg">
<path d="M12.5 2.92969C11.4453 2.92969 10.6445 3.48926 10.0684 4.08105C9.49902 4.67188 9.05859 5.37207 8.64355 6.1748C7.81348 7.78027 7.11328 9.81445 6.50684 12.041C5.70898 14.9707 5.09082 18.1738 4.76074 20.9961H8.31543C8.6377 18.4668 9.19629 15.5371 9.90234 12.959C10.4688 10.8887 11.1328 9.0166 11.7676 7.79004C12.0801 7.17676 12.4023 6.72949 12.5977 6.52734C12.666 6.45605 12.6758 6.45605 12.6855 6.44531H37.3145C37.3242 6.45605 37.334 6.45605 37.4023 6.52734C37.5977 6.72949 37.9199 7.17676 38.2324 7.79004C38.8672 9.0166 39.5313 10.8887 40.0977 12.959C40.8008 15.5371 41.3672 18.4668 41.6797 20.9961H45.2344C44.9121 18.1738 44.2871 14.9707 43.4961 12.041C42.8906 9.81445 42.1875 7.78027 41.3574 6.1748C40.9375 5.37207 40.498 4.67188 39.9316 4.08105C39.3555 3.48926 38.5547 2.92969 37.5 2.92969H12.5ZM3.125 22.7539C1.17188 22.7539 1.17188 27.2461 3.125 27.2461H46.875C48.8281 27.2461 48.8281 22.7539 46.875 22.7539H3.125ZM5.78125 29.0039C5.8252 29.2188 5.86719 29.4434 5.9082 29.668L6.25098 30.0098L7.25 29.0039H5.78125ZM9.74609 29.0039L7.49609 31.25L12.5 36.25L17.5 31.25L15.2539 29.0039H9.74609ZM17.7539 29.0039L18.75 30L19.7461 29.0039H17.7539ZM22.2461 29.0039L20 31.25L25 36.25L30 31.25L27.7539 29.0039H22.2461ZM30.2539 29.0039L31.25 30L32.2461 29.0039H30.2539ZM34.7461 29.0039L32.5 31.25L37.5 36.25L42.5 31.25L40.2539 29.0039H34.7461ZM42.7539 29.0039L43.75 30L44.0918 29.6582C44.1309 29.4336 44.1797 29.2188 44.2187 29.0039H42.7539ZM18.75 32.5L13.7402 37.5L18.7402 42.5L23.75 37.5L18.75 32.5ZM31.25 32.5L26.25 37.5L31.25 42.5L36.25 37.5L31.25 32.5ZM6.38867 32.6367C6.76172 35.166 7.12695 37.9395 7.69336 40.4297C7.73242 40.6055 7.77441 40.7715 7.81543 40.9375L11.25 37.5L6.38867 32.6367ZM43.6035 32.6465L38.75 37.5L42.1875 40.9375C42.2266 40.7617 42.2656 40.5957 42.3047 40.4297C42.8711 37.9395 43.2422 35.1758 43.6035 32.6465ZM12.5 38.7402L8.3623 42.8809C8.71777 43.9746 9.12988 44.9316 9.60352 45.6738C10.4102 46.9336 11.2695 47.5586 12.5 47.5586H13.6914L17.5 43.7402L12.5 38.7402ZM25 38.75L20 43.7598L23.7988 47.5586H26.2012L30 43.75L25 38.75ZM37.5 38.75L32.5 43.75L36.3086 47.5586H37.5C38.7305 47.5586 39.5898 46.9336 40.4004 45.6738C40.8691 44.9316 41.2793 43.9746 41.6309 42.8809L37.5 38.75ZM18.7598 45L16.1914 47.5586H21.3184L18.7598 45ZM31.25 45L28.6914 47.5586H33.8086L31.25 45Z" fill="#093238"/>
</svg>
