<svg width="30" height="30" fill="none" xmlns="http://www.w3.org/2000/svg"><path d="M7.5 1.758c-.633 0-1.113.336-1.459.69-.342.355-.606.775-.855 1.257-.498.963-.918 2.184-1.282 3.52a37.999 37.999 0 00-1.048 5.373H4.99c.194-1.518.529-3.276.952-4.823.34-1.242.739-2.365 1.12-3.101.187-.368.38-.636.498-.758.04-.042.046-.042.052-.049H22.39c.006.007.011.007.052.05.118.12.311.39.498.757.381.736.78 1.86 1.12 3.101a35.93 35.93 0 01.949 4.823h2.133a37.883 37.883 0 00-1.043-5.373c-.364-1.336-.785-2.557-1.284-3.52-.252-.482-.515-.902-.855-1.256-.346-.355-.826-.691-1.459-.691h-15zM1.875 13.652c-1.172 0-1.172 2.696 0 2.696h26.25c1.172 0 1.172-2.696 0-2.696H1.875zm1.594 3.75c.026.13.051.264.076.399l.206.205.599-.604h-.881zm2.379 0l-1.35 1.348 3.002 3 3-3-1.348-1.348H5.848zm4.804 0l.598.598.598-.598h-1.196zm2.696 0L12 18.75l3 3 3-3-1.348-1.348h-3.304zm4.804 0l.598.598.598-.598h-1.196zm2.696 0L19.5 18.75l3 3 3-3-1.348-1.348h-3.304zm4.804 0l.598.598.205-.205c.024-.135.053-.264.076-.393h-.879zM11.25 19.5l-3.006 3 3 3 3.006-3-3-3zm7.5 0l-3 3 3 3 3-3-3-3zm-14.917.082c.224 1.518.443 3.182.783 4.676.023.105.049.205.073.305L6.75 22.5l-2.917-2.918zm22.33.006L23.25 22.5l2.063 2.063c.023-.106.046-.206.07-.305.34-1.494.562-3.152.78-4.67zM7.5 23.244L5.017 25.73c.214.656.46 1.23.745 1.675.484.756 1 1.131 1.738 1.131h.715l2.285-2.29-3-3zm7.5.006l-3 3.006 2.28 2.28h1.44L18 26.25l-3-3zm7.5 0l-3 3 2.285 2.285h.715c.738 0 1.254-.375 1.74-1.13.282-.446.528-1.02.739-1.677L22.5 23.25zM11.256 27l-1.541 1.535h3.076L11.256 27zm7.494 0l-1.535 1.535h3.07L18.75 27z" fill="#FAF9F9"/></svg>