<svg width="50" height="50" fill="none" xmlns="http://www.w3.org/2000/svg"><path d="M5.316 2.91H5.2c-.458.016-.773.17-.988.385-.286.286-.465.75-.35 1.494.114.744.555 1.734 1.491 2.827 6.63 7.735 12.982 15.191 17.94 20.7a211.25 211.25 0 003.332 3.626c1.181-3.115 3.376-5.287 6.143-6.32a212.328 212.328 0 00-3.535-3.247c-5.508-4.957-12.965-11.31-20.7-17.94C7.44 3.5 6.45 3.06 5.706 2.945a2.885 2.885 0 00-.39-.036zm28.885 24.085c-2.974.745-5.199 2.85-6.211 6.37.552.564 1.07 1.082 1.54 1.533.74.71 1.377 1.27 1.877 1.656.173-1.682.98-3.228 2.113-4.364 1.036-1.038 2.392-1.758 3.821-1.864a26.742 26.742 0 00-1.526-1.712 68.724 68.724 0 00-1.614-1.619zm3.453 5.074c-1.016.013-2.044.515-2.89 1.362-1.126 1.13-1.823 2.818-1.588 4.463.521 3.647 2.32 6.427 4.83 7.934 2.22 1.331 5.025 1.694 8.168.682-2.365-.392-4.538-2.999-4.706-4.947 1.038 1.252 2.338 2.398 3.752 3.1-.965-2.204-.898-4.438-1.083-6.28-.132-1.32-.38-2.44-1.11-3.434-.732-.994-1.995-1.934-4.37-2.725a3.031 3.031 0 00-1.003-.155z" fill="#E3B447"/></svg>