<svg width="50" height="50" viewBox="0 0 50 50" fill="none" xmlns="http://www.w3.org/2000/svg">
<path d="M11.6211 3.02734V9.47266H13.3789V3.02734H11.6211ZM36.6211 3.02734V9.47266H38.3789V3.02734H36.6211ZM7.12891 8.69141V11.6211H42.8711V8.69141H40.1367V11.2305H34.8633V8.69141H15.1367V11.2305H9.86328V8.69141H7.12891ZM7.12891 13.3789V42.8711H42.8711V13.3789H7.12891ZM17.8711 14.7461H19.6289V17.8711H24.1211V14.7461H25.8789V17.8711H30.3711V14.7461H32.1289V17.8711H36.6211V14.7461H38.3789V17.8711H41.5039V19.6289H38.3789V24.1211H41.5039V25.8789H38.3789V30.3711H41.5039V32.1289H38.3789V36.6211H41.5039V38.3789H25.8789V41.5039H24.1211V38.3789H19.6289V41.5039H17.8711V38.3789H13.3789V41.5039H11.6211V38.3789H8.49609V36.6211H11.6211V32.1289H8.49609V30.3711H11.6211V25.8789H8.49609V24.1211H11.6211V19.6289H8.49609V17.8711H17.8711V14.7461ZM13.3789 19.6289V24.1211H17.8711V19.6289H13.3789ZM19.6289 19.6289V24.1211H24.1211V19.6289H19.6289ZM25.8789 19.6289V24.1211H30.3711V19.6289H25.8789ZM32.1289 19.6289V24.1211H36.6211V19.6289H32.1289ZM13.3789 25.8789V30.3711H17.8711V25.8789H13.3789ZM19.6289 25.8789V30.3711H24.1211V25.8789H19.6289ZM25.8789 25.8789V27.1748C26.1294 26.5931 26.5931 26.1294 27.1748 25.8789H25.8789ZM29.0752 25.8789C29.6569 26.1294 30.1206 26.5931 30.3711 27.1748V25.8789H29.0752ZM32.1289 25.8789V30.3711H36.6211V25.8789H32.1289ZM28.125 27.4414C27.737 27.4414 27.4414 27.737 27.4414 28.125C27.4414 28.513 27.737 28.8086 28.125 28.8086C28.513 28.8086 28.8086 28.513 28.8086 28.125C28.8086 27.737 28.513 27.4414 28.125 27.4414ZM25.8789 29.0752V30.3711H27.1748C26.5931 30.1206 26.1294 29.6569 25.8789 29.0752ZM30.3711 29.0752C30.1206 29.6569 29.6569 30.1206 29.0752 30.3711H30.3711V29.0752ZM13.3789 32.1289V36.6211H17.8711V32.1289H13.3789ZM19.6289 32.1289V36.6211H24.1211V32.1289H19.6289ZM25.8789 32.1289V36.6211H30.3711V32.1289H25.8789ZM32.1289 32.1289V36.6211H36.6211V32.1289H32.1289Z" fill="#093238"/>
</svg>
