<svg width="50" height="50" fill="none" xmlns="http://www.w3.org/2000/svg"><path d="M37.763 47.632l-11.645-5.413a1.543 1.543 0 01-.748-2.048l8.24-17.727a1.542 1.542 0 012.047-.749l11.645 5.414a1.542 1.542 0 01.747 2.047L39.81 46.883a1.543 1.543 0 01-2.047.749zm-28.1-1.934l-7.73-17.955a1.542 1.542 0 01.805-2.026l3.828-1.647 4.783 17.973a3.223 3.223 0 003.941 2.284l3.812-1.014-7.413 3.192a1.543 1.543 0 01-2.026-.807zm3.31-4.088L7.946 22.719a1.542 1.542 0 011.092-1.886l3.324-.884-.4 2.975a3.222 3.222 0 002.762 3.622l7.796 1.05-3.174 10.69a3.22 3.22 0 00.67 3.045l-5.158 1.372a1.541 1.541 0 01-1.885-1.093zm10.588-.465l-1.564-.465a1.542 1.542 0 01-1.04-1.916l5.564-18.74a1.543 1.543 0 011.916-1.04l4.792 1.423h.001l.012.004-.013-.003a3.203 3.203 0 00-1.143 1.328l-8.24 17.728a3.224 3.224 0 00-.285 1.681zm-.557-15.179l-8.055-1.085a1.543 1.543 0 01-1.322-1.735l2.61-19.374A1.542 1.542 0 0117.97 2.45l12.727 1.716a1.543 1.543 0 011.321 1.733l-1.606 11.92-1.497-.445a3.22 3.22 0 00-4.004 2.17l-1.907 6.422zm-.507-3.072c.456-.298.73-.726.823-1.284a1.76 1.76 0 00-.378-1.46c-.343-.43-.82-.696-1.431-.798-.62-.103-1.165-.007-1.636.289a1.765 1.765 0 00-.841 1.257c-.088.526.041 1.017.387 1.473.348.44.833.711 1.452.814.62.103 1.161.006 1.624-.29zm2.537-7.934c.458-.266.868-.53 1.23-.793.362-.262.676-.545.941-.852.265-.303.486-.642.658-1.006a4.78 4.78 0 00.376-1.256c.123-.745.1-1.403-.072-1.976a3.57 3.57 0 00-.863-1.487 4.678 4.678 0 00-1.495-1.018 8.18 8.18 0 00-1.97-.573 8.989 8.989 0 00-2.229-.095 7.31 7.31 0 00-2.084.477l-.581 3.496a6.217 6.217 0 012.036-.837c.693-.144 1.34-.166 1.945-.065 2.096.4 1.898 2.431.856 3.323-.552.437-1.107.86-1.557 1.108-1.024.578-2.705 2.258-2.202 4.409l3.055.508c-.694-1.734 1.14-2.877 1.956-3.363z" fill="#E3B447"/></svg>