<svg width="50" height="50" viewBox="0 0 50 50" fill="none" xmlns="http://www.w3.org/2000/svg">
<path d="M48.0927 2.14246C40.0127 2.11746 31.741 3.36316 24.3804 6.54607C24.8887 7.83181 25.3158 9.32732 25.6683 10.9926C23.6865 9.4991 21.2077 9.02205 19.0156 9.32625C14.5019 12.1028 10.5068 15.8013 7.35154 20.6147C9.81179 21.3721 12.3877 22.8423 14.4653 24.8964C11.353 24.2084 7.73611 24.3207 4.77898 25.1893C3.43689 27.9909 2.33679 31.0956 1.52283 34.5338C14.0922 31.5388 14.2691 34.8769 6.47888 48.2484C8.12703 49.4802 10.5982 49.5931 12.5244 48.0958C13.0859 26.1657 22.6006 31.86 24.823 34.6253C26.2183 30.6614 28.2185 26.5647 30.9662 22.2749C29.2777 20.8426 27.1371 19.8493 24.7344 19.1133C27.2114 18.6 29.7061 18.0461 31.9733 18.0176C32.6063 18.0095 33.2214 18.0441 33.8136 18.1304C35.5294 15.786 37.4667 13.3832 39.6485 10.9068C38.4241 10.2906 37.1606 9.78826 35.9254 9.44519C37.5984 8.88269 39.3701 8.63074 41.0859 8.64861C41.2822 8.65056 41.4769 8.65789 41.6719 8.66687C43.6318 6.54695 45.7663 4.37234 48.0927 2.14217V2.14246ZM41.6719 4.61726C28.8857 11.0034 19.5404 20.528 14.1539 32.5714C16.8301 18.0089 28.032 8.25886 41.6719 4.61726Z" fill="#093238"/>
</svg>
