<svg width="50" height="50" viewBox="0 0 50 50" fill="none" xmlns="http://www.w3.org/2000/svg">
<path d="M33.2549 1.6084L31.375 10.3363L38.2754 1.6084H33.2549ZM48.0287 3.4332L36.3343 16.3818L48.0287 11.7035V3.4332ZM18.1031 7.83691C18.0394 7.83789 17.9768 7.84024 17.9138 7.84307C16.9851 7.88428 16.1199 8.10039 15.4053 8.58457C13.7487 9.70684 14.3023 12.2131 13.1807 14.7461C9.34868 23.4 5.47759 29.6763 2.05688 34.3079V44.4031C8.07075 42.3187 17.0279 40.1586 30.1177 39.7247C32.8643 39.6339 34.974 40.9534 36.621 39.8378C40.6873 37.0832 39.2151 27.878 33.371 19.2506C33.0058 18.7115 32.6656 18.1627 32.2845 17.6545C27.7142 11.5582 22.1161 7.78311 18.1029 7.83711L18.1031 7.83691ZM17.5782 10.2295C16.9184 11.5862 17.5379 14.5127 19.1346 18.1152C18.6307 16.2963 18.6768 14.9764 19.397 14.5386C20.9717 13.5813 25.164 17.1924 28.7598 22.6044C32.3555 28.0162 33.9935 33.1796 32.419 34.1369C31.7711 34.5307 30.6797 34.1504 29.3702 33.1908C32.0769 35.9342 34.52 37.5375 36.02 37.4541C35.8457 37.7637 35.6611 38.0639 35.3852 38.2508C32.7583 40.0306 26.4248 35.2967 21.2586 27.6703C16.0924 20.0439 14.0448 12.4027 16.6717 10.6231C16.941 10.4409 17.2366 10.2788 17.5782 10.2295ZM48.0287 21.5149L39.7583 24.1943L48.0287 25.4486V21.5149Z" fill="#093238"/>
</svg>
