<svg width="30" height="30" fill="none" xmlns="http://www.w3.org/2000/svg"><path d="M19.557 1.183a9.12 9.12 0 00-6.469 2.675c-3.437 3.438-3.562 8.948-.375 12.537l-.925.923.777.776.923-.924c3.588 3.187 9.1 3.062 12.537-.376 3.567-3.567 3.567-9.368 0-12.936a9.116 9.116 0 00-6.468-2.675zm0 1.088c2.06 0 4.119.787 5.693 2.362a8.044 8.044 0 010 11.387 8.042 8.042 0 01-10.986.373l.013-.012a8.091 8.091 0 01-.405-.376 8.049 8.049 0 01-.37-.399l-.013.013a8.042 8.042 0 01.374-10.986 8.029 8.029 0 015.694-2.362zm0 1.102c-1.776 0-3.552.68-4.91 2.038a6.935 6.935 0 000 9.82 6.948 6.948 0 001.986 1.393 6.108 6.108 0 01-2.4-4.86c0-.897.193-1.75.54-2.52-.244 1.201.026 2.396.848 3.218 1.44 1.44 4.028 1.19 5.779-.56 1.75-1.751 2-4.338.56-5.779a3.07 3.07 0 00-.449-.37 6.126 6.126 0 014.937 5.442 6.927 6.927 0 00-1.982-5.784 6.92 6.92 0 00-4.909-2.038zm-9.191 14.07l-7.9 7.899 2.026 2.025 7.899-7.9-2.025-2.024zm-8.022 9.323l-.938.936.775.775.935-.938-.772-.773z" fill="#FAF9F9"/></svg>