<svg width="50" height="50" fill="none" xmlns="http://www.w3.org/2000/svg"><path d="M24.72 1.813c-12.845 0-23.28 10.43-23.28 23.275 0 12.845 10.435 23.276 23.28 23.276 12.844 0 23.275-10.43 23.275-23.275 0-12.845-10.431-23.276-23.276-23.276zM22.381 6.9a18.12 18.12 0 0110.598 3.4 15.062 15.062 0 00-1.666-.095c-8.218 0-14.88 6.665-14.88 14.883 0 8.219 6.662 14.88 14.88 14.88.563 0 1.12-.03 1.666-.09a18.12 18.12 0 01-10.599 3.399c-10.056 0-18.191-8.132-18.191-18.189C4.19 15.033 12.325 6.9 22.381 6.9z" fill="#E3B447"/></svg>