<svg width="15" height="15" fill="none" xmlns="http://www.w3.org/2000/svg"><g clip-path="url(#a)"><path d="M0 13.125A1.875 1.875 0 001.875 15h11.25A1.875 1.875 0 0015 13.125V1.875A1.875 1.875 0 0013.125 0H1.875A1.875 1.875 0 000 1.875v11.25zm4.219-6.094H7.03V4.22a.469.469 0 01.938 0V7.03h2.812a.469.469 0 010 .938H7.97v2.812a.469.469 0 01-.938 0V7.97H4.22a.469.469 0 010-.938z" fill="#FAF9F9"/></g><defs><clipPath id="a"><path fill="#fff" transform="rotate(-90 7.5 7.5)" d="M0 0H15V15H0z"/></clipPath></defs></svg>