<svg width="50" height="50" fill="none" xmlns="http://www.w3.org/2000/svg"><path d="M45.687 3.5c-5.196.344-9.89.79-13.588 4.901.964 2.887 2.556 6.434 4.553 9.3 2.002 2.875 4.37 4.94 6.7 5.205 3.444-3.228 5.244-10.996 2.335-19.405zm-27.152.994a4.19 4.19 0 00-1.561.355 4.267 4.267 0 00-1.645 1.308 5.47 5.47 0 00-.966 2.073 7.344 7.344 0 00-.14 2.522 8.78 8.78 0 00.707 2.586 8.575 8.575 0 002.134 2.944c.888.78 1.892 1.297 2.907 1.494.233 5.616-1.897 4.286-6.888 7.188l1.551 3.095c3.474-1.34 5.063-1.924 6.765-4.328 3.182 9.172-.183 15.355-2.313 24.129l3.292.48c2.314-5.59 5.382-11.949 6.097-17.717 4.78 4.994 7.569 11.195 11.197 16.518l3.498-1.44c-4.474-7.884-6.41-12.537-14.707-25.605 2.62-.019 4.866-.644 6.903-1.506a32.912 32.912 0 01-1.907-3.114c-2.756 1.18-5.765 1.66-8.803.083.487-.882.743-1.95.74-3.097a8.598 8.598 0 00-.751-3.441c-.601-1.352-1.518-2.521-2.618-3.336-1.1-.814-2.323-1.232-3.492-1.19zM1.511 8.526l.32 3.33L6.969 22.38l2.107-1.028L3.959 10.87 1.511 8.526zm9.479 13.63l-4.566 2.228.306 1.807 5.495-2.682-1.235-1.353zm.226 3.584L9.11 26.768l1.628 3.335 2.106-1.028-1.628-3.335z" fill="#E3B447"/></svg>