<svg width="50" height="50" viewBox="0 0 50 50" fill="none" xmlns="http://www.w3.org/2000/svg">
<path d="M24.7852 2.97266C23.8574 3.08984 23.0176 4.17383 23.0176 5.58984C23.0176 6.37109 23.2812 7.05469 23.6719 7.5332L24.1504 8.09961L23.418 8.23633C22.9102 8.33398 22.5391 8.60742 22.2168 9.04687C21.8848 9.49609 21.6406 10.0977 21.4746 10.8105C21.1621 12.0898 21.0937 13.6523 21.084 15.0391H22.793L22.9492 17.1777C23.6133 17.1484 24.2969 17.1289 24.9902 17.1289C25.7227 17.1289 26.4355 17.1484 27.1289 17.1875L27.2754 15.0391H28.8965C28.8965 13.6426 28.877 12.0508 28.5937 10.752C28.4375 10.0488 28.2031 9.4375 27.8809 8.99805C27.5586 8.55859 27.1582 8.29492 26.582 8.20703L25.8398 8.08984L26.3086 7.50391C26.6895 7.03516 26.9434 6.35156 26.9434 5.58984C26.9434 4.08594 26.0059 2.97266 24.9805 2.97266H24.7852ZM6.04492 17.0312C5.11719 17.1484 4.27734 18.2324 4.27734 19.6484C4.27734 20.4297 4.54102 21.1133 4.93164 21.5918L5.41016 22.1582L4.67773 22.2949C4.16992 22.3926 3.79883 22.666 3.47656 23.1055C3.14453 23.5547 2.90039 24.1602 2.73438 24.873C2.42187 26.1523 2.35352 27.7148 2.34375 29.1016H4.05273L4.51172 35.3809C5.70313 35.6543 6.97266 35.6348 8.11914 35.3809L8.53906 29.1016H10.1562C10.1562 27.7051 10.1367 26.1133 9.85352 24.8145C9.7002 24.1113 9.46582 23.4961 9.14355 23.0566C8.82227 22.6172 8.42187 22.3535 7.8457 22.2656L7.09961 22.1484L7.56836 21.5625C7.95313 21.0937 8.20703 20.4102 8.20703 19.6484C8.20703 18.1445 7.26563 17.0312 6.24023 17.0312H6.04492ZM43.5449 17.0312C42.6172 17.1484 41.7773 18.2324 41.7773 19.6484C41.7773 20.4297 42.041 21.1133 42.4316 21.5918L42.9102 22.1582L42.1777 22.2949C41.6699 22.3926 41.2988 22.666 40.9766 23.1055C40.6445 23.5547 40.4004 24.1602 40.2344 24.873C39.9219 26.1523 39.8535 27.7148 39.8438 29.1016H41.5527L42.0117 35.3809C43.2031 35.6543 44.4727 35.6348 45.6152 35.3809L46.0352 29.1016H47.6562C47.6562 27.7051 47.6367 26.1133 47.3535 24.8145C47.1973 24.1113 46.9629 23.4961 46.6406 23.0566C46.3184 22.6172 45.918 22.3535 45.3418 22.2656L44.5996 22.1484L45.0684 21.5625C45.4492 21.0937 45.7031 20.4102 45.7031 19.6484C45.7031 18.1445 44.7656 17.0312 43.7402 17.0312H43.5449ZM24.9902 18.8867C21.4062 18.8867 18.1641 19.4043 15.8887 20.2051C14.7559 20.6055 13.8672 21.084 13.3203 21.543C12.7637 22.002 12.5879 22.3828 12.5879 22.6953C12.5879 23.0078 12.7637 23.3887 13.3203 23.8477C13.8672 24.3066 14.7559 24.7754 15.8887 25.1855C18.1641 25.9863 21.4062 26.5039 24.9902 26.5039C28.5742 26.5039 31.8164 25.9863 34.0918 25.1855C35.2246 24.7754 36.1133 24.3066 36.6602 23.8477C37.2168 23.3887 37.3926 23.0078 37.3926 22.6953C37.3926 22.3828 37.2168 22.002 36.6602 21.543C36.1133 21.084 35.2246 20.6055 34.0918 20.2051C31.8164 19.4043 28.5742 18.8867 24.9902 18.8867ZM14.7363 26.6211V31.0937H16.4941V27.207C16.084 27.0898 15.6836 26.9727 15.3027 26.8359C15.1074 26.7676 14.9219 26.6992 14.7363 26.6211ZM35.2441 26.6211C35.0586 26.6992 34.873 26.7676 34.6777 26.8359C34.2969 26.9727 33.8965 27.0898 33.4863 27.207V31.0937H35.2441V26.6211ZM24.7852 28.4766C23.8574 28.5937 23.0176 29.6777 23.0176 31.0937C23.0176 31.875 23.2812 32.5586 23.6719 33.0371L24.1504 33.6035L23.418 33.7402C22.9102 33.8379 22.5391 34.1113 22.2168 34.5508C21.8848 35 21.6406 35.6055 21.4746 36.3184C21.1621 37.5977 21.0937 39.1602 21.084 40.5469H22.793L23.252 46.8262C24.4434 47.0996 25.7129 47.0801 26.8555 46.8262L27.2754 40.5469H28.8965C28.8965 39.1504 28.877 37.5586 28.5937 36.2598C28.4375 35.5566 28.2031 34.9414 27.8809 34.5019C27.5586 34.0625 27.1582 33.7988 26.582 33.7109L25.8398 33.5937L26.3086 33.0078C26.6895 32.5391 26.9434 31.8555 26.9434 31.0937C26.9434 29.5898 26.0059 28.4766 24.9805 28.4766H24.7852Z" fill="#093238"/>
</svg>
